<svg xmlns="http://www.w3.org/2000/svg" viewBox="0 0 24 24"><g fill="none"><path d="M24 23c0 .55-.45 1-1 1H1c-.55 0-1-.45-1-1V1c0-.55.45-1 1-1h22c.55 0 1 .45 1 1v22z" fill="#DF542D"/><path d="M19.247 16.49c-.883-.032-1.788-.539-2.635-1.082-.224-.144-.434-.303-.646-.459.263-.02.526-.046.789-.053 1.007-.03 2.044.004 2.815.43.435.24.741.608.683.817-.058.21-.52.366-1.006.348m-7.887-1.835-.312.062a29.87 29.87 0 0 0-1.856.426c.05-.093.105-.185.155-.278a50.363 50.363 0 0 0 1.94-3.946 14.203 14.203 0 0 0 2.345 3.308c-.766.128-1.525.278-2.272.428M6.651 17.63l-.06.109c-.464.842-.943 1.713-1.728 2.195-.424.26-.895.346-1.048.193-.154-.154-.067-.624.193-1.047.462-.752 1.35-1.29 2.239-1.76.26-.138.525-.261.792-.379-.13.23-.26.458-.388.69M10.966 7.5c-.296-.96-.542-1.969-.338-2.827.116-.484.387-.877.604-.877.218 0 .489.393.604.877.205.858-.041 1.866-.338 2.827-.081.263-.167.526-.258.791-.092-.262-.19-.518-.274-.79m9.088 6.95c-.982-.543-2.18-.586-3.328-.556-.625.018-1.246.073-1.863.15-1.265-1.175-2.28-2.625-3.067-4.366.247-.64.467-1.265.658-1.884.338-1.097.615-2.262.355-3.354-.239-1-.857-1.645-1.577-1.645-.719 0-1.338.645-1.577 1.645-.26 1.092.017 2.257.356 3.354.206.67.447 1.296.704 1.902-.57 1.416-1.295 2.931-2.248 4.693-.212.394-.435.783-.656 1.173-.68.236-1.367.52-2.031.872-1.015.536-2.036 1.164-2.623 2.12-.539.875-.558 1.77-.049 2.278.246.246.583.369.963.369.407 0 .864-.14 1.315-.417 1.01-.62 1.58-1.654 2.08-2.565l.06-.107c.26-.47.525-.937.79-1.404.06-.105.117-.21.177-.316a24.885 24.885 0 0 1 2.75-.695l.313-.063a54.73 54.73 0 0 1 3-.534c.477.411.975.8 1.516 1.148.967.62 2.016 1.199 3.138 1.24l.126.002c.964 0 1.696-.417 1.88-1.081.193-.693-.263-1.462-1.162-1.96" fill="#FFF"/></g></svg>