<svg xmlns="http://www.w3.org/2000/svg" viewBox="0 0 24 24"><g fill="none"><path d="M22.154 2.277h-2.772v19.406h2.772a.927.927 0 0 0 .924-.924V3.2a.927.927 0 0 0-.924-.924M17.544.11 1.814 2.595A1.12 1.12 0 0 0 .9 3.663v16.634c0 .508.41.989.913 1.068l15.732 2.484a.766.766 0 0 0 .913-.78V.89a.766.766 0 0 0-.913-.78" fill="#EE6747"/><path d="M10.63 11.736H8.594V7.663h2.036A2.04 2.04 0 0 1 12.667 9.7a2.04 2.04 0 0 1-2.037 2.036m0-5.43H7.236v10.861h1.358v-4.073h2.036a3.394 3.394 0 1 0 0-6.789" fill="#FFF"/></g></svg>