<svg xmlns="http://www.w3.org/2000/svg" viewBox="0 0 24 24"><path d="M5.915 16.74A26.285 26.285 0 0 1 5.5 12c0-1.69.147-3.284.415-4.74C2.376 8.217 0 9.98 0 12s2.376 3.784 5.915 4.74M9 .378A12.02 12.02 0 0 0 .378 9C1.618 7.75 3.63 6.754 6.15 6.15 6.754 3.629 7.75 1.619 9 .378m6 23.244a12.02 12.02 0 0 0 8.622-8.621c-1.24 1.249-3.251 2.246-5.772 2.85-.604 2.52-1.6 4.53-2.85 5.771M.378 15.001A12.02 12.02 0 0 0 9 23.622c-1.25-1.241-2.246-3.251-2.85-5.771C3.63 17.247 1.619 16.25.378 15m23.244-6A12.019 12.019 0 0 0 15 .378c1.25 1.241 2.246 3.251 2.85 5.772 2.52.604 4.532 1.6 5.772 2.85m-5.537-1.74c.268 1.456.415 3.05.415 4.74 0 1.69-.147 3.284-.415 4.74C21.624 15.784 24 14.02 24 12s-2.376-3.783-5.915-4.74M7 7a24.42 24.42 0 0 0-.5 5c0 1.785.18 3.478.5 5 1.522.32 3.214.5 5 .5 1.784 0 3.476-.18 4.999-.5.32-1.522.5-3.215.5-5 0-1.785-.18-3.477-.5-5a24.47 24.47 0 0 0-5-.5c-1.785 0-3.477.18-5 .5m5 11.5c-1.69 0-3.284-.146-4.74-.415C8.217 21.624 9.98 23.999 12 24c2.02 0 3.784-2.376 4.74-5.915-1.456.269-3.05.415-4.74.415m0-13c1.69 0 3.284.147 4.74.416C15.784 2.376 14.02 0 12 0S8.217 2.376 7.26 5.916A26.198 26.198 0 0 1 12 5.5" fill="#3A89E5"/></svg>